<mxfile host="app.diagrams.net" modified="2023-06-18T03:18:36.553Z" agent="Mozilla/5.0 (Windows NT 10.0; Win64; x64) AppleWebKit/537.36 (KHTML, like Gecko) Chrome/114.0.0.0 Safari/537.36" version="21.4.0" etag="igV7VfvaLBzpIx-09yGl" type="github">
  <diagram name="第 1 页" id="jH02x005sIngTKv3e4C3">
    <mxGraphModel>
      <root>
        <mxCell id="0" />
        <mxCell id="1" parent="0" />
      </root>
    </mxGraphModel>
  </diagram>
</mxfile>
